<mxfile host="app.diagrams.net" modified="2024-03-21T17:30:37.360Z" agent="Mozilla/5.0 (Windows NT 10.0; Win64; x64) AppleWebKit/537.36 (KHTML, like Gecko) Chrome/122.0.0.0 Safari/537.36" etag="NGGNoj3PcrJ7fcwHBlS1" version="21.2.9" type="device">
  <diagram id="C5RBs43oDa-KdzZeNtuy" name="Page-1">
    <mxGraphModel dx="1478" dy="704" grid="1" gridSize="10" guides="1" tooltips="1" connect="1" arrows="1" fold="1" page="1" pageScale="1" pageWidth="827" pageHeight="1169" math="0" shadow="0">
      <root>
        <mxCell id="WIyWlLk6GJQsqaUBKTNV-0" />
        <mxCell id="WIyWlLk6GJQsqaUBKTNV-1" parent="WIyWlLk6GJQsqaUBKTNV-0" />
        <mxCell id="WIyWlLk6GJQsqaUBKTNV-2" value="" style="rounded=0;html=1;jettySize=auto;orthogonalLoop=1;fontSize=11;endArrow=block;endFill=0;endSize=8;strokeWidth=1;shadow=0;labelBackgroundColor=none;edgeStyle=orthogonalEdgeStyle;" parent="WIyWlLk6GJQsqaUBKTNV-1" source="WIyWlLk6GJQsqaUBKTNV-3" edge="1">
          <mxGeometry relative="1" as="geometry">
            <mxPoint x="-343" y="110" as="targetPoint" />
            <Array as="points">
              <mxPoint x="-343" y="110" />
              <mxPoint x="-343" y="110" />
            </Array>
          </mxGeometry>
        </mxCell>
        <mxCell id="WIyWlLk6GJQsqaUBKTNV-3" value="&lt;b&gt;1&lt;br&gt;&lt;/b&gt;Grade(int score)" style="rounded=1;whiteSpace=wrap;html=1;fontSize=12;glass=0;strokeWidth=1;shadow=0;" parent="WIyWlLk6GJQsqaUBKTNV-1" vertex="1">
          <mxGeometry x="-403" y="40" width="120" height="40" as="geometry" />
        </mxCell>
        <mxCell id="WIyWlLk6GJQsqaUBKTNV-8" value="No" style="rounded=0;html=1;jettySize=auto;orthogonalLoop=1;fontSize=11;endArrow=block;endFill=0;endSize=8;strokeWidth=1;shadow=0;labelBackgroundColor=none;edgeStyle=orthogonalEdgeStyle;entryX=0.5;entryY=0;entryDx=0;entryDy=0;" parent="WIyWlLk6GJQsqaUBKTNV-1" source="WIyWlLk6GJQsqaUBKTNV-10" target="LP0ySpmtS2wHDgv2XFBD-4" edge="1">
          <mxGeometry y="20" relative="1" as="geometry">
            <mxPoint as="offset" />
            <mxPoint x="-343" y="300" as="targetPoint" />
            <Array as="points">
              <mxPoint x="-343" y="280" />
              <mxPoint x="-343" y="280" />
            </Array>
          </mxGeometry>
        </mxCell>
        <mxCell id="WIyWlLk6GJQsqaUBKTNV-9" value="Yes" style="edgeStyle=orthogonalEdgeStyle;rounded=0;html=1;jettySize=auto;orthogonalLoop=1;fontSize=11;endArrow=block;endFill=0;endSize=8;strokeWidth=1;shadow=0;labelBackgroundColor=none;" parent="WIyWlLk6GJQsqaUBKTNV-1" source="WIyWlLk6GJQsqaUBKTNV-10" target="WIyWlLk6GJQsqaUBKTNV-12" edge="1">
          <mxGeometry y="10" relative="1" as="geometry">
            <mxPoint as="offset" />
          </mxGeometry>
        </mxCell>
        <mxCell id="WIyWlLk6GJQsqaUBKTNV-10" value="&lt;b&gt;3&lt;br&gt;&lt;/b&gt;score &amp;lt; 0 || score &amp;gt; 10" style="rhombus;whiteSpace=wrap;html=1;shadow=0;fontFamily=Helvetica;fontSize=12;align=center;strokeWidth=1;spacing=6;spacingTop=-4;" parent="WIyWlLk6GJQsqaUBKTNV-1" vertex="1">
          <mxGeometry x="-393" y="180" width="100" height="80" as="geometry" />
        </mxCell>
        <mxCell id="WIyWlLk6GJQsqaUBKTNV-12" value="&lt;b&gt;4&lt;br&gt;&lt;/b&gt;return &#39;I&#39;" style="rounded=1;whiteSpace=wrap;html=1;fontSize=12;glass=0;strokeWidth=1;shadow=0;" parent="WIyWlLk6GJQsqaUBKTNV-1" vertex="1">
          <mxGeometry x="-243" y="200" width="120" height="40" as="geometry" />
        </mxCell>
        <mxCell id="LP0ySpmtS2wHDgv2XFBD-1" value="&lt;b&gt;2&lt;br&gt;&lt;/b&gt;int res" style="rounded=1;whiteSpace=wrap;html=1;fontSize=12;glass=0;strokeWidth=1;shadow=0;" vertex="1" parent="WIyWlLk6GJQsqaUBKTNV-1">
          <mxGeometry x="-403" y="110" width="120" height="40" as="geometry" />
        </mxCell>
        <mxCell id="LP0ySpmtS2wHDgv2XFBD-2" value="" style="rounded=0;html=1;jettySize=auto;orthogonalLoop=1;fontSize=11;endArrow=block;endFill=0;endSize=8;strokeWidth=1;shadow=0;labelBackgroundColor=none;edgeStyle=orthogonalEdgeStyle;exitX=0.5;exitY=1;exitDx=0;exitDy=0;entryX=0.5;entryY=0;entryDx=0;entryDy=0;" edge="1" parent="WIyWlLk6GJQsqaUBKTNV-1" source="LP0ySpmtS2wHDgv2XFBD-1" target="WIyWlLk6GJQsqaUBKTNV-10">
          <mxGeometry relative="1" as="geometry">
            <mxPoint x="-333" y="50" as="sourcePoint" />
            <mxPoint x="-333" y="100" as="targetPoint" />
          </mxGeometry>
        </mxCell>
        <mxCell id="LP0ySpmtS2wHDgv2XFBD-4" value="&lt;b&gt;5&lt;br&gt;&lt;/b&gt;score &amp;gt;= 9" style="rhombus;whiteSpace=wrap;html=1;shadow=0;fontFamily=Helvetica;fontSize=12;align=center;strokeWidth=1;spacing=6;spacingTop=-4;" vertex="1" parent="WIyWlLk6GJQsqaUBKTNV-1">
          <mxGeometry x="-393" y="280" width="100" height="80" as="geometry" />
        </mxCell>
        <mxCell id="LP0ySpmtS2wHDgv2XFBD-5" value="Yes" style="edgeStyle=orthogonalEdgeStyle;rounded=0;html=1;jettySize=auto;orthogonalLoop=1;fontSize=11;endArrow=block;endFill=0;endSize=8;strokeWidth=1;shadow=0;labelBackgroundColor=none;exitX=1;exitY=0.5;exitDx=0;exitDy=0;entryX=0.5;entryY=0;entryDx=0;entryDy=0;" edge="1" parent="WIyWlLk6GJQsqaUBKTNV-1" source="LP0ySpmtS2wHDgv2XFBD-4" target="LP0ySpmtS2wHDgv2XFBD-6">
          <mxGeometry y="10" relative="1" as="geometry">
            <mxPoint as="offset" />
            <mxPoint x="-283" y="230" as="sourcePoint" />
            <mxPoint x="-393" y="480" as="targetPoint" />
          </mxGeometry>
        </mxCell>
        <mxCell id="LP0ySpmtS2wHDgv2XFBD-6" value="&lt;b&gt;7&lt;br&gt;&lt;/b&gt;res = &#39;A&#39;" style="rounded=1;whiteSpace=wrap;html=1;fontSize=12;glass=0;strokeWidth=1;shadow=0;" vertex="1" parent="WIyWlLk6GJQsqaUBKTNV-1">
          <mxGeometry x="-303" y="340" width="120" height="40" as="geometry" />
        </mxCell>
        <mxCell id="LP0ySpmtS2wHDgv2XFBD-8" value="No" style="rounded=0;html=1;jettySize=auto;orthogonalLoop=1;fontSize=11;endArrow=block;endFill=0;endSize=8;strokeWidth=1;shadow=0;labelBackgroundColor=none;edgeStyle=orthogonalEdgeStyle;exitX=0;exitY=0.5;exitDx=0;exitDy=0;entryX=0.5;entryY=0;entryDx=0;entryDy=0;" edge="1" parent="WIyWlLk6GJQsqaUBKTNV-1" source="LP0ySpmtS2wHDgv2XFBD-4" target="LP0ySpmtS2wHDgv2XFBD-23">
          <mxGeometry x="-0.3344" y="-10" relative="1" as="geometry">
            <mxPoint as="offset" />
            <mxPoint x="-333" y="270" as="sourcePoint" />
            <mxPoint x="-403" y="420" as="targetPoint" />
            <Array as="points">
              <mxPoint x="-403" y="320" />
            </Array>
          </mxGeometry>
        </mxCell>
        <mxCell id="LP0ySpmtS2wHDgv2XFBD-9" value="&lt;b&gt;8&lt;br&gt;&lt;/b&gt;score &amp;gt;= 6.5" style="rhombus;whiteSpace=wrap;html=1;shadow=0;fontFamily=Helvetica;fontSize=12;align=center;strokeWidth=1;spacing=6;spacingTop=-4;" vertex="1" parent="WIyWlLk6GJQsqaUBKTNV-1">
          <mxGeometry x="-533" y="420" width="100" height="80" as="geometry" />
        </mxCell>
        <mxCell id="LP0ySpmtS2wHDgv2XFBD-10" value="Yes" style="edgeStyle=orthogonalEdgeStyle;rounded=0;html=1;jettySize=auto;orthogonalLoop=1;fontSize=11;endArrow=block;endFill=0;endSize=8;strokeWidth=1;shadow=0;labelBackgroundColor=none;exitX=1;exitY=0.5;exitDx=0;exitDy=0;entryX=0.5;entryY=0;entryDx=0;entryDy=0;" edge="1" parent="WIyWlLk6GJQsqaUBKTNV-1" source="LP0ySpmtS2wHDgv2XFBD-9" target="LP0ySpmtS2wHDgv2XFBD-11">
          <mxGeometry y="10" relative="1" as="geometry">
            <mxPoint as="offset" />
            <mxPoint x="-413" y="500" as="sourcePoint" />
            <mxPoint x="-413" y="610" as="targetPoint" />
          </mxGeometry>
        </mxCell>
        <mxCell id="LP0ySpmtS2wHDgv2XFBD-11" value="&lt;b&gt;11&lt;br&gt;&lt;/b&gt;res = &#39;C&#39;" style="rounded=1;whiteSpace=wrap;html=1;fontSize=12;glass=0;strokeWidth=1;shadow=0;" vertex="1" parent="WIyWlLk6GJQsqaUBKTNV-1">
          <mxGeometry x="-463" y="500" width="120" height="40" as="geometry" />
        </mxCell>
        <mxCell id="LP0ySpmtS2wHDgv2XFBD-13" value="No" style="rounded=0;html=1;jettySize=auto;orthogonalLoop=1;fontSize=11;endArrow=block;endFill=0;endSize=8;strokeWidth=1;shadow=0;labelBackgroundColor=none;edgeStyle=orthogonalEdgeStyle;exitX=0;exitY=0.5;exitDx=0;exitDy=0;entryX=0.5;entryY=0;entryDx=0;entryDy=0;" edge="1" parent="WIyWlLk6GJQsqaUBKTNV-1" source="LP0ySpmtS2wHDgv2XFBD-9" target="LP0ySpmtS2wHDgv2XFBD-17">
          <mxGeometry x="-0.143" y="-10" relative="1" as="geometry">
            <mxPoint as="offset" />
            <mxPoint x="-463" y="460" as="sourcePoint" />
            <mxPoint x="-563" y="620" as="targetPoint" />
            <Array as="points">
              <mxPoint x="-563" y="460" />
            </Array>
          </mxGeometry>
        </mxCell>
        <mxCell id="LP0ySpmtS2wHDgv2XFBD-17" value="&lt;b&gt;10&lt;br&gt;&lt;/b&gt;score &amp;gt;= 5" style="rhombus;whiteSpace=wrap;html=1;shadow=0;fontFamily=Helvetica;fontSize=12;align=center;strokeWidth=1;spacing=6;spacingTop=-4;" vertex="1" parent="WIyWlLk6GJQsqaUBKTNV-1">
          <mxGeometry x="-613" y="500" width="100" height="80" as="geometry" />
        </mxCell>
        <mxCell id="LP0ySpmtS2wHDgv2XFBD-18" value="Yes" style="edgeStyle=orthogonalEdgeStyle;rounded=0;html=1;jettySize=auto;orthogonalLoop=1;fontSize=11;endArrow=block;endFill=0;endSize=8;strokeWidth=1;shadow=0;labelBackgroundColor=none;exitX=1;exitY=0.5;exitDx=0;exitDy=0;entryX=0.5;entryY=0;entryDx=0;entryDy=0;" edge="1" parent="WIyWlLk6GJQsqaUBKTNV-1" source="LP0ySpmtS2wHDgv2XFBD-17" target="LP0ySpmtS2wHDgv2XFBD-19">
          <mxGeometry y="10" relative="1" as="geometry">
            <mxPoint as="offset" />
            <mxPoint x="-493" y="600" as="sourcePoint" />
            <mxPoint x="-493" y="710" as="targetPoint" />
          </mxGeometry>
        </mxCell>
        <mxCell id="LP0ySpmtS2wHDgv2XFBD-19" value="&lt;b&gt;13&lt;br&gt;&lt;/b&gt;res = &#39;D&#39;" style="rounded=1;whiteSpace=wrap;html=1;fontSize=12;glass=0;strokeWidth=1;shadow=0;" vertex="1" parent="WIyWlLk6GJQsqaUBKTNV-1">
          <mxGeometry x="-543" y="580" width="120" height="40" as="geometry" />
        </mxCell>
        <mxCell id="LP0ySpmtS2wHDgv2XFBD-20" value="No" style="rounded=0;html=1;jettySize=auto;orthogonalLoop=1;fontSize=11;endArrow=block;endFill=0;endSize=8;strokeWidth=1;shadow=0;labelBackgroundColor=none;edgeStyle=orthogonalEdgeStyle;exitX=0;exitY=0.5;exitDx=0;exitDy=0;entryX=0.5;entryY=0;entryDx=0;entryDy=0;" edge="1" parent="WIyWlLk6GJQsqaUBKTNV-1" source="LP0ySpmtS2wHDgv2XFBD-17" target="LP0ySpmtS2wHDgv2XFBD-21">
          <mxGeometry x="-0.1428" y="-10" relative="1" as="geometry">
            <mxPoint as="offset" />
            <mxPoint x="-543" y="560" as="sourcePoint" />
            <mxPoint x="-573" y="740" as="targetPoint" />
            <Array as="points">
              <mxPoint x="-643" y="540" />
            </Array>
          </mxGeometry>
        </mxCell>
        <mxCell id="LP0ySpmtS2wHDgv2XFBD-21" value="&lt;b&gt;12&lt;br&gt;&lt;/b&gt;res = &#39;F&#39;" style="rounded=1;whiteSpace=wrap;html=1;fontSize=12;glass=0;strokeWidth=1;shadow=0;" vertex="1" parent="WIyWlLk6GJQsqaUBKTNV-1">
          <mxGeometry x="-703" y="580" width="120" height="40" as="geometry" />
        </mxCell>
        <mxCell id="LP0ySpmtS2wHDgv2XFBD-23" value="&lt;b&gt;6&lt;br&gt;&lt;/b&gt;score &amp;gt;= 8" style="rhombus;whiteSpace=wrap;html=1;shadow=0;fontFamily=Helvetica;fontSize=12;align=center;strokeWidth=1;spacing=6;spacingTop=-4;" vertex="1" parent="WIyWlLk6GJQsqaUBKTNV-1">
          <mxGeometry x="-453" y="340" width="100" height="80" as="geometry" />
        </mxCell>
        <mxCell id="LP0ySpmtS2wHDgv2XFBD-24" value="&lt;b&gt;9&lt;br&gt;&lt;/b&gt;res = &#39;B&#39;" style="rounded=1;whiteSpace=wrap;html=1;fontSize=12;glass=0;strokeWidth=1;shadow=0;" vertex="1" parent="WIyWlLk6GJQsqaUBKTNV-1">
          <mxGeometry x="-383" y="420" width="120" height="40" as="geometry" />
        </mxCell>
        <mxCell id="LP0ySpmtS2wHDgv2XFBD-25" value="No" style="rounded=0;html=1;jettySize=auto;orthogonalLoop=1;fontSize=11;endArrow=block;endFill=0;endSize=8;strokeWidth=1;shadow=0;labelBackgroundColor=none;edgeStyle=orthogonalEdgeStyle;exitX=0;exitY=0.5;exitDx=0;exitDy=0;" edge="1" parent="WIyWlLk6GJQsqaUBKTNV-1" source="LP0ySpmtS2wHDgv2XFBD-23">
          <mxGeometry x="-0.1427" y="-10" relative="1" as="geometry">
            <mxPoint x="-10" y="10" as="offset" />
            <mxPoint x="-383" y="360" as="sourcePoint" />
            <mxPoint x="-483" y="420" as="targetPoint" />
            <Array as="points">
              <mxPoint x="-483" y="380" />
            </Array>
          </mxGeometry>
        </mxCell>
        <mxCell id="LP0ySpmtS2wHDgv2XFBD-26" value="Yes" style="edgeStyle=orthogonalEdgeStyle;rounded=0;html=1;jettySize=auto;orthogonalLoop=1;fontSize=11;endArrow=block;endFill=0;endSize=8;strokeWidth=1;shadow=0;labelBackgroundColor=none;exitX=1;exitY=0.5;exitDx=0;exitDy=0;entryX=0.5;entryY=0;entryDx=0;entryDy=0;" edge="1" parent="WIyWlLk6GJQsqaUBKTNV-1" source="LP0ySpmtS2wHDgv2XFBD-23" target="LP0ySpmtS2wHDgv2XFBD-24">
          <mxGeometry y="10" relative="1" as="geometry">
            <mxPoint as="offset" />
            <mxPoint x="-353" y="460" as="sourcePoint" />
            <mxPoint x="-323" y="520" as="targetPoint" />
          </mxGeometry>
        </mxCell>
        <mxCell id="LP0ySpmtS2wHDgv2XFBD-28" value="" style="rounded=0;html=1;jettySize=auto;orthogonalLoop=1;fontSize=11;endArrow=block;endFill=0;endSize=8;strokeWidth=1;shadow=0;labelBackgroundColor=none;edgeStyle=orthogonalEdgeStyle;exitX=0.5;exitY=1;exitDx=0;exitDy=0;entryX=0.66;entryY=-0.01;entryDx=0;entryDy=0;entryPerimeter=0;" edge="1" parent="WIyWlLk6GJQsqaUBKTNV-1" source="LP0ySpmtS2wHDgv2XFBD-6" target="LP0ySpmtS2wHDgv2XFBD-27">
          <mxGeometry relative="1" as="geometry">
            <mxPoint x="-333" y="140" as="sourcePoint" />
            <mxPoint x="-243" y="540" as="targetPoint" />
          </mxGeometry>
        </mxCell>
        <mxCell id="LP0ySpmtS2wHDgv2XFBD-31" value="" style="rounded=0;html=1;jettySize=auto;orthogonalLoop=1;fontSize=11;endArrow=block;endFill=0;endSize=8;strokeWidth=1;shadow=0;labelBackgroundColor=none;edgeStyle=orthogonalEdgeStyle;exitX=0.5;exitY=1;exitDx=0;exitDy=0;entryX=0.25;entryY=0;entryDx=0;entryDy=0;" edge="1" parent="WIyWlLk6GJQsqaUBKTNV-1" source="LP0ySpmtS2wHDgv2XFBD-11" target="LP0ySpmtS2wHDgv2XFBD-27">
          <mxGeometry relative="1" as="geometry">
            <mxPoint x="-313" y="570" as="sourcePoint" />
            <mxPoint x="-283" y="720" as="targetPoint" />
          </mxGeometry>
        </mxCell>
        <mxCell id="LP0ySpmtS2wHDgv2XFBD-32" value="" style="rounded=0;html=1;jettySize=auto;orthogonalLoop=1;fontSize=11;endArrow=block;endFill=0;endSize=8;strokeWidth=1;shadow=0;labelBackgroundColor=none;edgeStyle=orthogonalEdgeStyle;exitX=1;exitY=0.5;exitDx=0;exitDy=0;entryX=0;entryY=0.5;entryDx=0;entryDy=0;" edge="1" parent="WIyWlLk6GJQsqaUBKTNV-1" source="LP0ySpmtS2wHDgv2XFBD-19" target="LP0ySpmtS2wHDgv2XFBD-27">
          <mxGeometry relative="1" as="geometry">
            <mxPoint x="-393" y="670" as="sourcePoint" />
            <mxPoint x="-323" y="740" as="targetPoint" />
          </mxGeometry>
        </mxCell>
        <mxCell id="LP0ySpmtS2wHDgv2XFBD-33" value="" style="rounded=0;html=1;jettySize=auto;orthogonalLoop=1;fontSize=11;endArrow=block;endFill=0;endSize=8;strokeWidth=1;shadow=0;labelBackgroundColor=none;edgeStyle=orthogonalEdgeStyle;exitX=0.5;exitY=1;exitDx=0;exitDy=0;entryX=0.5;entryY=1;entryDx=0;entryDy=0;" edge="1" parent="WIyWlLk6GJQsqaUBKTNV-1" source="LP0ySpmtS2wHDgv2XFBD-21" target="LP0ySpmtS2wHDgv2XFBD-27">
          <mxGeometry relative="1" as="geometry">
            <mxPoint x="-413" y="750" as="sourcePoint" />
            <mxPoint x="-313" y="750" as="targetPoint" />
          </mxGeometry>
        </mxCell>
        <mxCell id="LP0ySpmtS2wHDgv2XFBD-36" value="" style="rounded=0;html=1;jettySize=auto;orthogonalLoop=1;fontSize=11;endArrow=block;endFill=0;endSize=8;strokeWidth=1;shadow=0;labelBackgroundColor=none;edgeStyle=orthogonalEdgeStyle;exitX=0.5;exitY=1;exitDx=0;exitDy=0;" edge="1" parent="WIyWlLk6GJQsqaUBKTNV-1" source="LP0ySpmtS2wHDgv2XFBD-24" target="LP0ySpmtS2wHDgv2XFBD-27">
          <mxGeometry relative="1" as="geometry">
            <mxPoint x="-323" y="460" as="sourcePoint" />
            <mxPoint x="-263" y="720" as="targetPoint" />
          </mxGeometry>
        </mxCell>
        <mxCell id="LP0ySpmtS2wHDgv2XFBD-27" value="&lt;b&gt;14&lt;br&gt;&lt;/b&gt;return res" style="rounded=1;whiteSpace=wrap;html=1;fontSize=12;glass=0;strokeWidth=1;shadow=0;" vertex="1" parent="WIyWlLk6GJQsqaUBKTNV-1">
          <mxGeometry x="-349" y="580" width="120" height="40" as="geometry" />
        </mxCell>
        <mxCell id="LP0ySpmtS2wHDgv2XFBD-41" value="" style="rounded=0;html=1;jettySize=auto;orthogonalLoop=1;fontSize=11;endArrow=block;endFill=0;endSize=8;strokeWidth=1;shadow=0;labelBackgroundColor=none;edgeStyle=orthogonalEdgeStyle;" edge="1" parent="WIyWlLk6GJQsqaUBKTNV-1" source="LP0ySpmtS2wHDgv2XFBD-42">
          <mxGeometry relative="1" as="geometry">
            <mxPoint x="390" y="730" as="targetPoint" />
            <Array as="points">
              <mxPoint x="390" y="730" />
              <mxPoint x="390" y="730" />
            </Array>
          </mxGeometry>
        </mxCell>
        <mxCell id="LP0ySpmtS2wHDgv2XFBD-42" value="&lt;b&gt;1&lt;br&gt;&lt;/b&gt;int Sum(int a[], int n)" style="rounded=1;whiteSpace=wrap;html=1;fontSize=12;glass=0;strokeWidth=1;shadow=0;" vertex="1" parent="WIyWlLk6GJQsqaUBKTNV-1">
          <mxGeometry x="330" y="660" width="120" height="40" as="geometry" />
        </mxCell>
        <mxCell id="LP0ySpmtS2wHDgv2XFBD-43" value="&lt;b&gt;2&lt;br&gt;&lt;/b&gt;int i, total = 0" style="rounded=1;whiteSpace=wrap;html=1;fontSize=12;glass=0;strokeWidth=1;shadow=0;" vertex="1" parent="WIyWlLk6GJQsqaUBKTNV-1">
          <mxGeometry x="330" y="730" width="120" height="40" as="geometry" />
        </mxCell>
        <mxCell id="LP0ySpmtS2wHDgv2XFBD-45" value="" style="rounded=0;html=1;jettySize=auto;orthogonalLoop=1;fontSize=11;endArrow=block;endFill=0;endSize=8;strokeWidth=1;shadow=0;labelBackgroundColor=none;edgeStyle=orthogonalEdgeStyle;" edge="1" parent="WIyWlLk6GJQsqaUBKTNV-1">
          <mxGeometry relative="1" as="geometry">
            <mxPoint x="390" y="800" as="targetPoint" />
            <Array as="points">
              <mxPoint x="390" y="800" />
              <mxPoint x="390" y="800" />
            </Array>
            <mxPoint x="390" y="770" as="sourcePoint" />
          </mxGeometry>
        </mxCell>
        <mxCell id="LP0ySpmtS2wHDgv2XFBD-46" value="&lt;b&gt;3&lt;br&gt;&lt;/b&gt;i = 0" style="rounded=1;whiteSpace=wrap;html=1;fontSize=12;glass=0;strokeWidth=1;shadow=0;" vertex="1" parent="WIyWlLk6GJQsqaUBKTNV-1">
          <mxGeometry x="330" y="800" width="120" height="40" as="geometry" />
        </mxCell>
        <mxCell id="LP0ySpmtS2wHDgv2XFBD-48" value="" style="rounded=0;html=1;jettySize=auto;orthogonalLoop=1;fontSize=11;endArrow=block;endFill=0;endSize=8;strokeWidth=1;shadow=0;labelBackgroundColor=none;edgeStyle=orthogonalEdgeStyle;" edge="1" parent="WIyWlLk6GJQsqaUBKTNV-1">
          <mxGeometry relative="1" as="geometry">
            <mxPoint x="389.74" y="870" as="targetPoint" />
            <Array as="points">
              <mxPoint x="389.74" y="870" />
              <mxPoint x="389.74" y="870" />
            </Array>
            <mxPoint x="389.74" y="840" as="sourcePoint" />
          </mxGeometry>
        </mxCell>
        <mxCell id="LP0ySpmtS2wHDgv2XFBD-49" value="&lt;b&gt;4&lt;br&gt;&lt;/b&gt;i &amp;lt; n" style="rhombus;whiteSpace=wrap;html=1;shadow=0;fontFamily=Helvetica;fontSize=12;align=center;strokeWidth=1;spacing=6;spacingTop=-4;" vertex="1" parent="WIyWlLk6GJQsqaUBKTNV-1">
          <mxGeometry x="340" y="870" width="100" height="80" as="geometry" />
        </mxCell>
        <mxCell id="LP0ySpmtS2wHDgv2XFBD-51" value="&lt;b&gt;5&lt;br&gt;&lt;/b&gt;total = total + a[i]&lt;br&gt;i++" style="rounded=1;whiteSpace=wrap;html=1;fontSize=12;glass=0;strokeWidth=1;shadow=0;" vertex="1" parent="WIyWlLk6GJQsqaUBKTNV-1">
          <mxGeometry x="330" y="1000" width="120" height="50" as="geometry" />
        </mxCell>
        <mxCell id="LP0ySpmtS2wHDgv2XFBD-52" value="" style="rounded=0;html=1;jettySize=auto;orthogonalLoop=1;fontSize=11;endArrow=block;endFill=0;endSize=8;strokeWidth=1;shadow=0;labelBackgroundColor=none;edgeStyle=orthogonalEdgeStyle;exitX=1;exitY=0.5;exitDx=0;exitDy=0;entryX=1;entryY=0.5;entryDx=0;entryDy=0;" edge="1" parent="WIyWlLk6GJQsqaUBKTNV-1" source="LP0ySpmtS2wHDgv2XFBD-51" target="LP0ySpmtS2wHDgv2XFBD-49">
          <mxGeometry relative="1" as="geometry">
            <mxPoint x="400" y="990" as="targetPoint" />
            <Array as="points">
              <mxPoint x="480" y="1025" />
              <mxPoint x="480" y="910" />
            </Array>
            <mxPoint x="400" y="960" as="sourcePoint" />
          </mxGeometry>
        </mxCell>
        <mxCell id="LP0ySpmtS2wHDgv2XFBD-53" value="Yes" style="edgeStyle=orthogonalEdgeStyle;rounded=0;html=1;jettySize=auto;orthogonalLoop=1;fontSize=11;endArrow=block;endFill=0;endSize=8;strokeWidth=1;shadow=0;labelBackgroundColor=none;exitX=0.5;exitY=1;exitDx=0;exitDy=0;entryX=0.5;entryY=0;entryDx=0;entryDy=0;" edge="1" parent="WIyWlLk6GJQsqaUBKTNV-1" source="LP0ySpmtS2wHDgv2XFBD-49" target="LP0ySpmtS2wHDgv2XFBD-51">
          <mxGeometry x="-0.3333" y="10" relative="1" as="geometry">
            <mxPoint as="offset" />
            <mxPoint x="510" y="840" as="sourcePoint" />
            <mxPoint x="540" y="880" as="targetPoint" />
          </mxGeometry>
        </mxCell>
        <mxCell id="LP0ySpmtS2wHDgv2XFBD-54" value="&lt;b&gt;6&lt;br&gt;&lt;/b&gt;return total" style="rounded=1;whiteSpace=wrap;html=1;fontSize=12;glass=0;strokeWidth=1;shadow=0;" vertex="1" parent="WIyWlLk6GJQsqaUBKTNV-1">
          <mxGeometry x="170" y="890" width="120" height="40" as="geometry" />
        </mxCell>
        <mxCell id="LP0ySpmtS2wHDgv2XFBD-55" value="No" style="rounded=0;html=1;jettySize=auto;orthogonalLoop=1;fontSize=11;endArrow=block;endFill=0;endSize=8;strokeWidth=1;shadow=0;labelBackgroundColor=none;edgeStyle=orthogonalEdgeStyle;exitX=0;exitY=0.5;exitDx=0;exitDy=0;entryX=1;entryY=0.5;entryDx=0;entryDy=0;" edge="1" parent="WIyWlLk6GJQsqaUBKTNV-1" source="LP0ySpmtS2wHDgv2XFBD-49" target="LP0ySpmtS2wHDgv2XFBD-54">
          <mxGeometry x="-0.1428" y="-10" relative="1" as="geometry">
            <mxPoint as="offset" />
            <mxPoint x="160" y="530" as="sourcePoint" />
            <mxPoint x="130" y="570" as="targetPoint" />
            <Array as="points">
              <mxPoint x="320" y="910" />
              <mxPoint x="320" y="910" />
            </Array>
          </mxGeometry>
        </mxCell>
        <mxCell id="LP0ySpmtS2wHDgv2XFBD-56" value="&lt;b&gt;1&lt;br&gt;&lt;/b&gt;string foo(int x)" style="rounded=1;whiteSpace=wrap;html=1;fontSize=12;glass=0;strokeWidth=1;shadow=0;" vertex="1" parent="WIyWlLk6GJQsqaUBKTNV-1">
          <mxGeometry x="414" y="40" width="120" height="40" as="geometry" />
        </mxCell>
        <mxCell id="LP0ySpmtS2wHDgv2XFBD-57" value="&lt;b&gt;2&lt;br&gt;&lt;/b&gt;string res" style="rounded=1;whiteSpace=wrap;html=1;fontSize=12;glass=0;strokeWidth=1;shadow=0;" vertex="1" parent="WIyWlLk6GJQsqaUBKTNV-1">
          <mxGeometry x="414" y="110" width="120" height="40" as="geometry" />
        </mxCell>
        <mxCell id="LP0ySpmtS2wHDgv2XFBD-58" value="" style="rounded=0;html=1;jettySize=auto;orthogonalLoop=1;fontSize=11;endArrow=block;endFill=0;endSize=8;strokeWidth=1;shadow=0;labelBackgroundColor=none;edgeStyle=orthogonalEdgeStyle;" edge="1" parent="WIyWlLk6GJQsqaUBKTNV-1" source="LP0ySpmtS2wHDgv2XFBD-56">
          <mxGeometry relative="1" as="geometry">
            <mxPoint x="473.52" y="80" as="sourcePoint" />
            <mxPoint x="474" y="110" as="targetPoint" />
            <Array as="points" />
          </mxGeometry>
        </mxCell>
        <mxCell id="LP0ySpmtS2wHDgv2XFBD-59" value="&lt;b&gt;3&lt;/b&gt;&lt;br&gt;switch(x)" style="rhombus;whiteSpace=wrap;html=1;" vertex="1" parent="WIyWlLk6GJQsqaUBKTNV-1">
          <mxGeometry x="416" y="180" width="116" height="70" as="geometry" />
        </mxCell>
        <mxCell id="LP0ySpmtS2wHDgv2XFBD-60" value="" style="rounded=0;html=1;jettySize=auto;orthogonalLoop=1;fontSize=11;endArrow=block;endFill=0;endSize=8;strokeWidth=1;shadow=0;labelBackgroundColor=none;edgeStyle=orthogonalEdgeStyle;exitX=0.5;exitY=1;exitDx=0;exitDy=0;entryX=0.5;entryY=0;entryDx=0;entryDy=0;" edge="1" parent="WIyWlLk6GJQsqaUBKTNV-1" source="LP0ySpmtS2wHDgv2XFBD-57" target="LP0ySpmtS2wHDgv2XFBD-59">
          <mxGeometry relative="1" as="geometry">
            <mxPoint x="484" y="90" as="sourcePoint" />
            <mxPoint x="484" y="120" as="targetPoint" />
            <Array as="points" />
          </mxGeometry>
        </mxCell>
        <mxCell id="LP0ySpmtS2wHDgv2XFBD-62" value="default" style="edgeStyle=orthogonalEdgeStyle;rounded=0;html=1;jettySize=auto;orthogonalLoop=1;fontSize=11;endArrow=block;endFill=0;endSize=8;strokeWidth=1;shadow=0;labelBackgroundColor=none;exitX=1;exitY=0.5;exitDx=0;exitDy=0;entryX=0.5;entryY=0;entryDx=0;entryDy=0;" edge="1" parent="WIyWlLk6GJQsqaUBKTNV-1" source="LP0ySpmtS2wHDgv2XFBD-59" target="LP0ySpmtS2wHDgv2XFBD-66">
          <mxGeometry y="10" relative="1" as="geometry">
            <mxPoint as="offset" />
            <mxPoint x="534" y="220" as="sourcePoint" />
            <mxPoint x="600" y="240" as="targetPoint" />
            <Array as="points">
              <mxPoint x="684" y="215" />
            </Array>
          </mxGeometry>
        </mxCell>
        <mxCell id="LP0ySpmtS2wHDgv2XFBD-63" value="&lt;b&gt;4&lt;/b&gt;&lt;br&gt;res = &quot;A&quot;" style="rounded=1;whiteSpace=wrap;html=1;fontSize=12;glass=0;strokeWidth=1;shadow=0;" vertex="1" parent="WIyWlLk6GJQsqaUBKTNV-1">
          <mxGeometry x="204" y="273" width="120" height="40" as="geometry" />
        </mxCell>
        <mxCell id="LP0ySpmtS2wHDgv2XFBD-64" value="&lt;b&gt;5&lt;/b&gt;&lt;br&gt;res = &quot;B&quot;" style="rounded=1;whiteSpace=wrap;html=1;fontSize=12;glass=0;strokeWidth=1;shadow=0;" vertex="1" parent="WIyWlLk6GJQsqaUBKTNV-1">
          <mxGeometry x="344" y="273" width="120" height="40" as="geometry" />
        </mxCell>
        <mxCell id="LP0ySpmtS2wHDgv2XFBD-65" value="&lt;b&gt;6&lt;/b&gt;&lt;br&gt;res = &quot;C&quot;" style="rounded=1;whiteSpace=wrap;html=1;fontSize=12;glass=0;strokeWidth=1;shadow=0;" vertex="1" parent="WIyWlLk6GJQsqaUBKTNV-1">
          <mxGeometry x="484" y="273" width="120" height="40" as="geometry" />
        </mxCell>
        <mxCell id="LP0ySpmtS2wHDgv2XFBD-66" value="&lt;b&gt;7&lt;/b&gt;&lt;br&gt;res = &quot;haven&#39;t check&quot;" style="rounded=1;whiteSpace=wrap;html=1;fontSize=12;glass=0;strokeWidth=1;shadow=0;" vertex="1" parent="WIyWlLk6GJQsqaUBKTNV-1">
          <mxGeometry x="624" y="273" width="120" height="40" as="geometry" />
        </mxCell>
        <mxCell id="LP0ySpmtS2wHDgv2XFBD-68" value="&lt;b&gt;8&lt;br&gt;&lt;/b&gt;return res" style="rounded=1;whiteSpace=wrap;html=1;fontSize=12;glass=0;strokeWidth=1;shadow=0;" vertex="1" parent="WIyWlLk6GJQsqaUBKTNV-1">
          <mxGeometry x="414" y="352" width="120" height="40" as="geometry" />
        </mxCell>
        <mxCell id="LP0ySpmtS2wHDgv2XFBD-69" value="67" style="edgeStyle=orthogonalEdgeStyle;rounded=0;html=1;jettySize=auto;orthogonalLoop=1;fontSize=11;endArrow=block;endFill=0;endSize=8;strokeWidth=1;shadow=0;labelBackgroundColor=none;exitX=1;exitY=1;exitDx=0;exitDy=0;entryX=0.5;entryY=0;entryDx=0;entryDy=0;" edge="1" parent="WIyWlLk6GJQsqaUBKTNV-1" source="LP0ySpmtS2wHDgv2XFBD-59" target="LP0ySpmtS2wHDgv2XFBD-65">
          <mxGeometry y="10" relative="1" as="geometry">
            <mxPoint as="offset" />
            <mxPoint x="542" y="225" as="sourcePoint" />
            <mxPoint x="694" y="283" as="targetPoint" />
            <Array as="points">
              <mxPoint x="503" y="250" />
              <mxPoint x="544" y="250" />
            </Array>
          </mxGeometry>
        </mxCell>
        <mxCell id="LP0ySpmtS2wHDgv2XFBD-70" value="66" style="edgeStyle=orthogonalEdgeStyle;rounded=0;html=1;jettySize=auto;orthogonalLoop=1;fontSize=11;endArrow=block;endFill=0;endSize=8;strokeWidth=1;shadow=0;labelBackgroundColor=none;exitX=0;exitY=1;exitDx=0;exitDy=0;entryX=0.5;entryY=0;entryDx=0;entryDy=0;" edge="1" parent="WIyWlLk6GJQsqaUBKTNV-1" source="LP0ySpmtS2wHDgv2XFBD-59" target="LP0ySpmtS2wHDgv2XFBD-64">
          <mxGeometry x="0.0429" y="-10" relative="1" as="geometry">
            <mxPoint as="offset" />
            <mxPoint x="450" y="240" as="sourcePoint" />
            <mxPoint x="491" y="280" as="targetPoint" />
            <Array as="points">
              <mxPoint x="445" y="250" />
              <mxPoint x="404" y="250" />
            </Array>
          </mxGeometry>
        </mxCell>
        <mxCell id="LP0ySpmtS2wHDgv2XFBD-71" value="65" style="edgeStyle=orthogonalEdgeStyle;rounded=0;html=1;jettySize=auto;orthogonalLoop=1;fontSize=11;endArrow=block;endFill=0;endSize=8;strokeWidth=1;shadow=0;labelBackgroundColor=none;entryX=0.5;entryY=0;entryDx=0;entryDy=0;exitX=0;exitY=0.5;exitDx=0;exitDy=0;" edge="1" parent="WIyWlLk6GJQsqaUBKTNV-1" source="LP0ySpmtS2wHDgv2XFBD-59" target="LP0ySpmtS2wHDgv2XFBD-63">
          <mxGeometry x="0.0571" y="-10" relative="1" as="geometry">
            <mxPoint as="offset" />
            <mxPoint x="420" y="220" as="sourcePoint" />
            <mxPoint x="694" y="283" as="targetPoint" />
            <Array as="points">
              <mxPoint x="264" y="215" />
            </Array>
          </mxGeometry>
        </mxCell>
        <mxCell id="LP0ySpmtS2wHDgv2XFBD-73" value="" style="edgeStyle=orthogonalEdgeStyle;rounded=0;html=1;jettySize=auto;orthogonalLoop=1;fontSize=11;endArrow=block;endFill=0;endSize=8;strokeWidth=1;shadow=0;labelBackgroundColor=none;entryX=0;entryY=0.5;entryDx=0;entryDy=0;exitX=0.5;exitY=1;exitDx=0;exitDy=0;" edge="1" parent="WIyWlLk6GJQsqaUBKTNV-1" source="LP0ySpmtS2wHDgv2XFBD-63" target="LP0ySpmtS2wHDgv2XFBD-68">
          <mxGeometry x="0.0048" y="22" relative="1" as="geometry">
            <mxPoint as="offset" />
            <mxPoint x="426" y="225" as="sourcePoint" />
            <mxPoint x="274" y="283" as="targetPoint" />
            <Array as="points">
              <mxPoint x="264" y="372" />
            </Array>
          </mxGeometry>
        </mxCell>
        <mxCell id="LP0ySpmtS2wHDgv2XFBD-74" value="" style="edgeStyle=orthogonalEdgeStyle;rounded=0;html=1;jettySize=auto;orthogonalLoop=1;fontSize=11;endArrow=block;endFill=0;endSize=8;strokeWidth=1;shadow=0;labelBackgroundColor=none;entryX=1;entryY=0.5;entryDx=0;entryDy=0;exitX=0.5;exitY=1;exitDx=0;exitDy=0;" edge="1" parent="WIyWlLk6GJQsqaUBKTNV-1" source="LP0ySpmtS2wHDgv2XFBD-66" target="LP0ySpmtS2wHDgv2XFBD-68">
          <mxGeometry x="0.0048" y="22" relative="1" as="geometry">
            <mxPoint as="offset" />
            <mxPoint x="274" y="323" as="sourcePoint" />
            <mxPoint x="424" y="382" as="targetPoint" />
            <Array as="points">
              <mxPoint x="684" y="372" />
            </Array>
          </mxGeometry>
        </mxCell>
        <mxCell id="LP0ySpmtS2wHDgv2XFBD-75" value="" style="edgeStyle=orthogonalEdgeStyle;rounded=0;html=1;jettySize=auto;orthogonalLoop=1;fontSize=11;endArrow=block;endFill=0;endSize=8;strokeWidth=1;shadow=0;labelBackgroundColor=none;exitX=0.5;exitY=1;exitDx=0;exitDy=0;entryX=0.25;entryY=0;entryDx=0;entryDy=0;" edge="1" parent="WIyWlLk6GJQsqaUBKTNV-1" target="LP0ySpmtS2wHDgv2XFBD-68">
          <mxGeometry x="0.0048" y="22" relative="1" as="geometry">
            <mxPoint as="offset" />
            <mxPoint x="400.03" y="313" as="sourcePoint" />
            <mxPoint x="440" y="320" as="targetPoint" />
            <Array as="points">
              <mxPoint x="400" y="330" />
              <mxPoint x="444" y="330" />
            </Array>
          </mxGeometry>
        </mxCell>
        <mxCell id="LP0ySpmtS2wHDgv2XFBD-76" value="" style="edgeStyle=orthogonalEdgeStyle;rounded=0;html=1;jettySize=auto;orthogonalLoop=1;fontSize=11;endArrow=block;endFill=0;endSize=8;strokeWidth=1;shadow=0;labelBackgroundColor=none;exitX=0.5;exitY=1;exitDx=0;exitDy=0;entryX=0.707;entryY=0;entryDx=0;entryDy=0;entryPerimeter=0;" edge="1" parent="WIyWlLk6GJQsqaUBKTNV-1" source="LP0ySpmtS2wHDgv2XFBD-65" target="LP0ySpmtS2wHDgv2XFBD-68">
          <mxGeometry x="0.0048" y="22" relative="1" as="geometry">
            <mxPoint as="offset" />
            <mxPoint x="410.03" y="323" as="sourcePoint" />
            <mxPoint x="500" y="350" as="targetPoint" />
            <Array as="points">
              <mxPoint x="544" y="330" />
              <mxPoint x="499" y="330" />
            </Array>
          </mxGeometry>
        </mxCell>
      </root>
    </mxGraphModel>
  </diagram>
</mxfile>
